<?xml version="1.0" encoding="UTF-8" standalone="no"?>
<svg
   xmlns:dc="http://purl.org/dc/elements/1.1/"
   xmlns:cc="http://creativecommons.org/ns#"
   xmlns:rdf="http://www.w3.org/1999/02/22-rdf-syntax-ns#"
   xmlns:svg="http://www.w3.org/2000/svg"
   xmlns="http://www.w3.org/2000/svg"
   width="500"
   height="160"
   viewBox="0 0 500 160"
   version="1.1"
   xml:space="preserve"
   style="clip-rule:evenodd;fill-rule:evenodd;stroke-linejoin:round;stroke-miterlimit:2"
   id="svg70"><metadata
   id="metadata76"><rdf:RDF><cc:Work
       rdf:about=""><dc:format>image/svg+xml</dc:format><dc:type
         rdf:resource="http://purl.org/dc/dcmitype/StillImage" /><dc:title></dc:title></cc:Work></rdf:RDF></metadata><defs
   id="defs74" />
    
<path
   d="M 21.40473,57.080896 H 6.0461239 c 0,0 -1.6461941,0 -2.4703633,1.371459 0,0 5.4858394,-1.096733 10.1496664,3.017643 0,0 2.193464,1.096733 2.193464,9.050759 V 112.4887 c 0,0 0,13.98931 9.874934,19.47515 0,0 11.246398,8.22875 26.881892,-0.27473 0,0 8.778203,-5.76056 8.778203,-20.57188 V 77.378054 c 0,0 -0.824182,-14.811323 5.760558,-25.51043 0,0 4.114377,-9.32549 17.828969,-16.457509 0,0 7.679303,-4.389099 22.490623,-4.389099 0,0 13.71675,1.098899 21.12132,-6.857291 0,0 8.77821,-7.679305 12.61786,-20.0224351 0,0 -8.7782,8.5034781 -21.66862,9.3254861 0,0 -24.138967,0 -31.545707,2.742917 0,0 -31.81828,5.485838 -42.789947,43.886682 0,0 -1.918744,5.487996 -1.918744,17.556406 v 30.721539 c 0,0 0.822013,6.58257 -5.760559,6.58257 0,0 -5.760558,0.27473 -5.760558,-6.30785 V 69.698749 c 0,0 0.822013,-10.971668 -6.85729,-11.795841 0,0 -1.646194,-3.564926 5.485827,-2.468193 0,0 8.228753,1.371459 12.068398,-3.017645 0,0 3.017645,-3.564926 2.468195,-9.600211 0,0 -1.918744,4.663826 -7.404572,5.485838 0,0 -9.325484,0 -11.795848,1.920906 0,0 -3.564926,0 -4.389095,6.857293 z"
   style="fill:#ed1c24;fill-opacity:1;stroke-width:2.16319"
   id="path20" /><path
   d="m 22.228899,134.70676 c 0,0 5.211108,6.30785 15.908056,6.03312 0,0 13.167299,1.0989 20.29932,-7.12985 0,0 7.679303,-5.21328 7.679303,-20.0246 V 79.024235 c 0,0 -0.547282,-17.554237 7.95619,-27.429173 0,0 5.758402,-9.327649 19.472982,-13.167301 0,0 3.017645,-1.918747 16.73439,-1.918747 0,0 11.79369,1.096733 20.29717,-7.681465 0,0 -1.09674,8.778198 -10.14967,16.457504 0,0 -4.11438,4.114378 -16.73222,5.213276 0,0 -11.246401,0.547282 -16.182778,7.679306 0,0 -6.58474,6.035277 -6.58474,20.022427 v 37.853558 c 0,0 0.274719,14.53877 -8.501316,23.58953 0,0 -7.40674,9.05292 -23.042233,9.87494 0,0 -18.925701,0.27472 -27.154454,-14.81133 z"
   style="fill:#ed1c24;fill-opacity:1;stroke-width:2.16319"
   id="path22" /><path
   d="m 53.225167,154.18191 c 0,0 13.714592,0.27472 23.040077,-9.60021 0,0 9.600204,-8.77819 9.600204,-23.04224 V 85.881531 c 0,0 -0.822001,-13.439862 10.424397,-17.279515 0,0 9.050755,-6.035285 20.571875,1.918741 0,0 13.43987,9.325491 6.58256,24.411539 0,0 -4.11437,8.228754 -13.98931,3.841812 0,0 -6.85729,-2.742919 -6.58257,-11.246396 0,0 2.19348,5.760563 6.30786,2.468193 0,0 3.29236,-3.292366 -0.5473,-7.132019 0,0 -3.29236,-4.389098 -7.95619,-1.920905 0,0 -3.017631,0.824172 -3.017631,8.505641 0,0 2.745071,32.640278 -3.290207,43.064678 0,0 -3.292364,10.42222 -14.811324,17.55424 0,0 -12.34313,7.6793 -26.332441,4.11437 z"
   style="fill:#ed1c24;fill-opacity:1;stroke-width:2.16319"
   id="path24" /><path
   id="path4"
   style="fill:#000000;stroke-width:2.52698"
   d="m 309.80481,22.66276 c -4.16447,0 -8.01125,3.52427 -8.65058,7.688742 l -6.40827,37.811194 c -0.64185,4.164474 2.24128,7.689933 6.40827,7.689933 h 19.86566 c 4.16701,0 8.33091,-3.525459 8.97277,-7.689933 l 2.24349,-13.137557 h -12.49791 l -1.60266,10.254429 h -9.29141 l 4.80679,-31.723929 h 9.61242 l -1.92367,10.896439 h 12.49673 l 2.24349,-14.100576 c 0.96278,-4.164472 -1.92279,-7.688748 -6.08727,-7.688742 z m -124.64629,0.321001 c 0,0 -10.25261,0.63845 -11.85471,14.739038 l -5.12662,38.12983 h 11.53607 l 2.88314,-21.148493 h 10.89407 l -2.56331,21.148493 h 11.53607 l 8.33195,-52.868868 z m 36.85055,0 -8.65177,52.868868 h 13.45857 l 8.64939,-52.868868 z m 24.03163,0 -9.61241,52.868868 h 11.53607 l 3.84378,-18.90382 v 0.321008 h 2.5645 l 5.12425,18.582812 h 12.1781 l -4.8068,-18.582812 c 0,0 8.97071,-0.320765 10.25442,-13.458566 l 1.28165,-6.088452 c 3.20423,-14.100588 -7.05029,-14.739038 -7.05029,-14.739038 z m 101.57531,0 -8.65294,52.868868 h 13.45856 l 3.84615,-24.031626 h 8.01093 l -3.84615,24.031626 h 13.45856 l 8.65296,-52.868868 h -13.45856 l -3.20415,18.582818 h -8.01093 l 3.20413,-18.582818 z m 45.50113,0 -8.33195,52.868868 h 14.41922 l 8.65176,-52.868868 z m 25.6331,0 -8.65176,52.868868 h 12.1769 l 3.84615,-25.954108 5.12545,25.954108 h 11.8559 l 8.65294,-52.868868 h -11.85708 l -4.16478,27.877778 -4.80562,-27.877778 z m 52.23041,0 c 0,0 -10.57471,0.63845 -11.85589,14.739038 l -5.12781,38.12983 h 11.21744 l 2.88313,-21.148493 h 11.21509 l -2.5657,21.148493 H 488.283 l 8.01094,-52.868868 z M 189.18472,33.471538 c 1.15988,-0.05082 2.06108,0.0841 2.06108,0.0841 h 7.05028 l -2.24349,11.215076 H 187.081 c 0,0 -5.12724,1.281976 -3.52514,-4.484607 l 0.64202,-3.525144 c 0.40115,-2.602796 3.0537,-3.20473 4.98684,-3.289425 z m 74.50894,0 c 1.77299,-0.07486 5.25858,0.166072 4.77719,3.289425 l -1.28166,5.768634 c -1.28371,5.766589 -5.44763,4.485791 -5.44763,4.485791 h -8.97158 l 2.88431,-13.459749 h 7.04674 c 0,0 0.40162,-0.05914 0.99263,-0.08411 z m 210.9922,0 c 1.16018,-0.05082 2.06105,0.0841 2.06105,0.0841 h 7.05028 l -2.24348,11.215076 h -8.97039 c 0,0 -5.12719,1.281976 -3.20414,-4.484607 l 0.32102,-3.525144 c 0.39954,-2.602796 3.05196,-3.20473 4.98566,-3.289425 z" /><path
   d="m 473.46447,97.986308 c -1.46627,0 -2.6878,-2.443104 -1.95372,-3.664655 4.39682,-3.909349 8.79365,-7.084615 14.65861,-9.040253 3.66465,-0.489389 5.61836,3.175266 5.13089,6.352456 -1.46624,13.437064 -0.73411,26.141964 -1.95561,39.334324 0,1.22156 -0.73219,4.39875 -2.68781,3.17527 -2.44312,-2.44119 -4.39684,-5.61836 -6.35243,-8.79363 1.95559,0 3.17717,2.4431 5.13088,2.4431 0.73408,0 1.22155,-0.73409 1.22155,-1.22155 0,-11.97274 -0.48747,-23.45416 0,-35.426908 0,-0.732158 -1.22155,-1.953711 -2.44312,-1.464319 -3.17523,2.685872 -5.61836,4.64151 -8.30614,7.816771 -0.4875,0 -1.95373,0.489394 -2.4431,0.489394 z"
   style="fill:#231f20;stroke-width:1.92674"
   id="path26" /><path
   d="m 481.03848,111.91276 c -3.17528,-1.95564 -5.61841,2.68587 -8.3062,4.39681 -0.48937,0 -1.22153,0 -1.22153,-0.48939 -0.73408,-1.95371 0.73216,-3.17526 1.22153,-4.39681 1.22156,-1.95371 3.17529,-1.95371 5.13092,-3.17719 1.22157,-1.46432 0.73215,-3.17526 1.22157,-5.12897 0,0 -0.24471,-0.73409 -0.48942,-1.22156 -1.46624,-1.22155 -5.13088,-1.955634 -5.13088,-0.73408 -1.22156,6.35245 -3.90936,12.7049 -3.17528,19.05735 0,0.73217 0.48748,1.95371 1.22156,2.44311 1.95372,0.73215 3.90932,-0.4894 5.61836,0 1.46624,0.73215 3.90937,0 4.64152,-1.22156 0.48936,-1.95563 0.48936,-3.66465 0.48936,-5.62029 -0.48936,-1.22155 -0.48936,-3.17526 -1.22151,-3.90742 z m -3.90937,4.39681 c -0.48747,1.46625 -0.2447,3.41996 -1.46626,4.15405 -1.22152,0.48747 -2.4431,-0.4894 -2.4431,-1.22155 0,-1.71094 2.4431,-4.64344 4.64345,-3.42189 z"
   style="fill:#231f20;stroke-width:1.92674"
   id="path28" /><path
   d="m 167.33872,105.07092 0.73217,0.48939 c -0.73217,1.22155 -1.46625,2.68587 -1.95371,3.90935 h -1.95563 c -1.95372,-2.6878 -5.12899,-7.08654 -2.44311,-8.79556 2.44311,-1.955636 3.17718,1.70902 3.66465,3.66466 0.73409,0.73216 1.22155,0.73216 1.95563,0.73216 z"
   style="fill:#231f20;stroke-width:1.92674"
   id="path30" /><path
   d="m 186.88355,89.680143 c -2.4431,-1.223477 -4.3968,1.953713 -6.84185,1.464319 -1.95371,-1.464319 0,-3.175261 0,-5.130899 0,-1.95371 -0.73216,-3.175261 -1.95371,-4.396813 h -1.9537 c 0,3.66465 1.22154,7.574001 0,11.238654 -0.48941,3.909352 -6.35247,4.64151 -6.84185,9.527716 2.4431,-0.48747 4.39874,-2.443104 6.35244,-4.396812 0.48941,0 1.22157,0 1.22157,0.732156 0.48938,3.177186 1.22154,6.841846 -1.22157,8.063396 -2.68778,1.46432 -6.35244,1.95371 -6.35244,5.86306 0.48938,0 1.22155,0.48939 1.22155,0.48939 1.95564,-0.48939 3.66465,-1.22155 5.13089,-3.17719 0.48941,-0.48746 1.71095,0.73216 1.71095,1.46625 -0.48938,7.574 -1.71095,14.41392 0,21.98792 0.73216,0.73216 1.46625,1.95564 1.46625,1.46625 1.70902,-9.04025 -3.1772,-17.83581 1.21962,-25.40788 1.95565,-3.90935 6.84185,-6.35245 10.01711,-9.529644 2.6878,-3.17526 0,-8.30616 -3.17526,-10.259873 z m -4.8862,12.702977 c -4.64152,0.73409 -2.68781,-4.886206 -1.95565,-7.574002 0.4894,-2.443103 5.6203,-3.175262 6.84185,0 0.73216,3.17719 -1.71095,7.086532 -4.8862,7.574002 z"
   style="fill:#231f20;stroke-width:1.92674"
   id="path32" /><path
   d="m 216.20078,124.12828 c 1.22154,-0.4894 2.44311,0 3.17719,-1.46625 0,0.73215 0.48746,0.73215 1.22154,0.73215 v 1.95564 c -1.95562,1.22155 -4.39873,1.22155 -6.35244,3.17527 -1.95564,1.22155 -2.4431,-1.46624 -2.4431,-2.6878 0,-1.22155 2.4431,-1.22155 4.39681,-1.70901 z"
   style="fill:#231f20;stroke-width:1.92674"
   id="path34" /><path
   d="m 224.99632,104.33876 c 0,-5.620296 2.44311,-10.751194 3.17527,-16.369559 -3.17527,-2.687801 -7.08461,-1.955638 -10.25987,0 -6.84184,4.886203 -6.84184,13.192369 -11.23866,20.276979 -0.73407,0.48939 -1.22154,0 -1.22154,-0.73216 -0.73216,-3.17526 0.24468,-6.10776 1.22154,-9.527712 0.48939,-2.443104 -0.73407,-4.398742 -2.6878,-5.130904 -0.48938,12.215516 1.46626,24.186326 0.7341,36.159066 0.73216,0 1.21963,0 1.21963,0.73216 2.68778,-7.574 -2.44311,-15.88016 2.68778,-22.96477 h 2.44311 c 2.44503,1.46432 0,3.90742 0.73409,5.86306 0,0.48939 0.48746,0.48939 1.22154,0.48939 0.4894,-0.48939 0.4894,-0.48939 1.22156,-0.48939 0.48747,0 1.22154,0.48939 0.48747,1.22155 -1.21963,1.22155 -1.70903,1.95371 -2.44311,3.17526 -0.48746,0.73409 -1.22155,0 -1.22155,-0.73216 -0.73216,0.73216 -0.73216,1.95371 -1.22154,3.17526 h 1.22154 c 2.44503,-1.70901 3.17719,-4.39681 5.1309,-6.83991 h 1.22154 c 1.95565,2.4431 -0.73216,5.1309 -1.95371,6.83991 1.22155,0 1.22155,-0.48746 1.95371,-1.22155 1.22157,-1.22155 1.95565,1.95564 3.17719,0.73409 0,-0.73409 -1.22154,-1.95564 -1.22154,-2.6878 0.48746,-1.71094 0,-4.39681 1.70901,-5.62029 -0.48747,0 -0.48747,-0.73216 -0.48747,-1.21962 -1.22154,0 -3.17719,0 -3.90935,-1.22348 0,-2.68587 0,-4.64151 -0.48938,-6.35053 -1.46624,-3.177186 -1.95371,2.44311 -4.39681,3.66466 -1.46625,0.73216 -3.1772,0 -2.6878,-1.95564 1.22155,-2.4431 2.6878,-4.886206 3.90934,-7.572078 2.4431,-3.177188 4.88621,-5.620288 8.79556,-6.841841 1.22155,-0.734085 2.44311,0 3.17525,1.221553 0.73217,4.396814 0,8.30616 -0.73214,12.704906 -0.4894,1.22155 -3.1772,0 -3.66467,0.48746 0,0.73409 -1.22154,1.46625 -0.73408,2.6878 1.22155,1.22155 2.68779,0 3.17719,-0.73216 0.73216,-0.48939 1.22156,0 1.22156,0.73216 0.73214,8.79555 0.73214,18.32327 0.73214,27.11882 0.73217,1.95564 3.17527,3.17525 3.17527,1.46624 1.22349,-10.26179 -2.4431,-20.2789 -3.17527,-30.53877 z m -11.97081,4.39681 c 0.4894,-0.48939 1.22156,-1.95371 2.4431,-1.22155 0.73217,0 0.73217,0.73216 0.73217,1.22155 -0.73217,0.73409 -0.73217,0.73409 -0.73217,1.22155 0,0.73216 -0.73407,1.46625 -1.22154,1.46625 -0.73216,-0.73409 -1.95564,-1.46625 -1.22156,-2.6878 z"
   style="fill:#231f20;stroke-width:1.92674"
   id="path36" /><path
   d="m 266.28629,108.24618 c 0,-2.68587 -0.73407,-4.64151 0.48747,-7.08461 1.95564,-2.443106 -0.48747,-5.128978 -0.48747,-8.306166 0,-1.710942 -1.46624,-2.4431 -1.95562,-3.175261 -7.574,-1.223477 -10.25988,8.306165 -13.43707,13.437067 -0.48746,1.95371 -1.22155,3.17526 -1.70902,5.12897 -0.73408,3.66658 -0.73408,7.574 -2.68779,10.75119 -1.22154,-3.17719 -0.48939,-7.08461 -0.48939,-10.2618 0.48939,-4.39681 0.48939,-8.06147 1.71094,-12.702978 -0.48938,0 -1.22155,-2.445026 -1.22155,-0.489388 -1.95564,7.574006 -1.22154,14.413916 -2.44311,22.232616 0,1.70902 0,4.39681 1.95372,6.35246 1.71094,-5.13091 3.17718,-10.99397 4.39874,-16.61426 0,-0.73216 0.48746,-1.22155 1.22154,-1.22155 1.22155,0 2.44311,0.48939 2.44311,1.22155 0,1.95564 0,4.39874 -0.48939,6.35245 -1.22155,1.95371 -1.95372,3.17526 -3.17526,5.1309 -0.73409,1.22155 0.48746,1.95372 0.48746,2.4431 h 1.46625 c 1.71094,-1.95563 2.93249,-4.39874 4.8862,-4.39874 1.22154,-0.73216 1.22154,1.95564 0.73408,3.17719 -1.95562,3.17526 -5.1309,3.17526 -7.57399,5.1309 -0.73409,0.48746 0,1.22155 0.48746,1.22155 2.6878,0 5.13091,-0.73409 7.57399,-1.95563 0,-0.48747 -1.22154,-1.95371 -1.22154,-2.44311 0.73408,-1.22154 1.95371,-1.22154 3.17528,0 -0.48748,-2.68779 -1.22157,-5.1309 -0.48748,-7.574 0.48748,-0.73216 1.22155,-1.95371 1.22155,-3.17526 -1.22155,0 -2.68781,-0.73409 -2.68781,-1.46625 0,-2.4431 1.46626,-4.8862 0,-7.574 h -1.71092 c -1.46433,1.95564 -1.95371,3.90935 -3.90744,3.90935 -0.48938,0 -1.95563,-0.73216 -1.22155,-1.95371 2.44311,-3.66466 3.66466,-8.306168 7.57208,-10.751194 1.22157,-0.732162 3.17718,0 4.39874,1.221552 1.95372,3.17719 1.95372,5.864982 1.22155,8.795552 -0.48938,1.46625 -3.17525,0.73409 -2.44311,2.6878 0.73217,0.48939 1.22156,1.95371 1.95373,2.4431 0.48938,7.574 1.95562,14.65861 1.95562,21.50045 0,0.73216 1.22157,0.73216 1.22157,0.73216 0.48746,-7.574 -2.68781,-15.148 -1.22157,-22.722 z m -9.04024,0.48939 c 0.73408,1.95371 1.22154,3.90935 0.73408,5.1309 -1.22346,1.95371 -2.68779,3.17526 -4.39873,4.39682 -0.73217,0 -1.22155,0 -1.22155,-0.48747 0.48938,0 0.24468,-0.73409 0.48938,-1.46625 1.22156,-2.4431 1.95373,-4.39681 1.95373,-6.83991 -0.73217,-1.22348 2.44309,-1.95564 2.44309,-0.73409 z"
   style="fill:#231f20;stroke-width:1.92674"
   id="path38" /><path
   d="m 302.93284,87.969201 c -2.19842,0 -1.95371,3.664655 -3.17528,4.886203 -1.95562,-3.175261 1.95372,-4.886203 1.95372,-8.063393 0.48939,0 1.22156,0 1.22156,-0.732158 1.22154,1.95371 3.90935,1.221547 3.90935,2.443099 0.48938,2.687799 0,5.130904 -1.46625,7.818701 -1.22156,4.396811 -3.17527,8.795557 -5.61838,13.192367 -0.73407,1.95564 -1.22154,5.1309 -3.66463,5.1309 -1.46626,-0.73216 -1.95564,-2.6878 -1.46626,-3.90935 1.95371,-3.66465 3.90935,-6.83992 5.13089,-10.749262 -0.73407,3.175262 -1.95562,6.352452 -3.66463,9.527712 0,0.73216 0,1.95564 0.48745,1.95564 5.1309,-5.1309 8.30617,-13.437068 8.30617,-21.012994 0,-0.487465 -1.21964,-0.487465 -1.95371,-0.487465 z"
   style="fill:#231f20;stroke-width:1.92674"
   id="path40" /><path
   d="m 316.3699,87.969201 c 0,0.732157 -0.73216,1.710942 -1.46625,2.443103 -1.22154,1.221552 -4.39682,1.953711 -3.66465,3.175262 0.48939,3.17719 5.1309,5.130898 8.79555,5.130898 1.22154,0 1.95564,1.955636 1.22154,3.177186 h -1.22154 c -1.22155,-1.22155 -2.4431,-1.955634 -4.39681,-1.955634 -1.95563,-0.732158 -3.17719,-3.17526 -5.13091,-4.396812 -1.22154,-0.734086 -3.66464,0.489388 -3.17526,-0.734086 0,-1.953714 3.17526,-2.443103 4.39682,-4.396814 0.73216,-1.221553 -0.48939,-1.955638 -1.22156,-2.443103 -0.48939,-1.955638 1.22156,-3.17719 1.22156,-5.130899 0,-0.732163 0.73216,-1.221552 1.46624,-0.732163 1.22156,1.221552 1.70902,3.175261 3.17527,4.396813 z"
   style="fill:#231f20;stroke-width:1.92674"
   id="path42" /><path
   d="m 293.40512,93.587566 c 1.22155,-2.443104 3.90935,-4.396815 3.17526,-7.084614 0,-1.710941 -3.17526,-0.489389 -4.3968,-0.489389 -1.95565,1.223475 -3.66467,2.687795 -6.35246,4.398741 -1.95371,1.221552 -5.1309,1.953711 -3.90935,5.1309 0.73216,1.221552 3.17527,0.489388 3.90935,-0.734086 1.22157,0.734086 2.44311,1.223474 3.17527,2.687796 v 1.22155 c -0.73216,1.221552 -2.44311,1.221552 -1.9537,3.177186 1.22154,1.22156 1.9537,2.44311 1.22154,3.66466 0,3.90935 0.73216,7.08461 0.73216,10.74926 -0.73216,5.1309 -1.22157,9.52772 -1.22157,14.65861 0,0.7341 0.48941,1.95373 1.95565,2.44311 1.22154,-9.28301 -1.95565,-18.81266 0.48746,-28.34037 0.73408,-1.46625 3.17719,-1.95371 4.39874,-3.17527 0.73217,-0.73408 -0.48938,-1.955634 0.73217,-2.687792 -1.22155,-1.710944 -2.44311,-3.664654 -1.95372,-5.620292 z m -1.95564,8.308084 c -1.22155,0.48747 -2.44309,-0.73408 -2.44309,-1.22155 0.73408,-1.466242 1.22154,-2.687792 2.44309,-3.177186 0.7341,0 1.46625,0 1.46625,0.489394 0,1.22155 0,3.175262 -1.46625,3.909342 z m 1.46625,-11.483346 c 0,1.953711 -0.73215,2.4431 -1.95372,3.909349 -0.73408,0.487465 -1.95562,0.487465 -2.68778,0.487465 -1.22154,-0.487465 -0.48941,-1.953714 -0.48941,-2.443103 0.48941,-3.175264 3.66466,-6.352452 6.84185,-3.909349 -0.48938,0.734085 -1.71094,1.223477 -1.71094,1.955638 z"
   style="fill:#231f20;stroke-width:1.92674"
   id="path44" /><path
   d="m 316.85929,117.77582 c -1.22155,-2.6878 -5.1309,-1.46625 -6.35246,-2.6878 -3.17526,-2.4431 0,-6.35245 1.22156,-9.52771 0,-0.48939 -1.46625,0 -1.71095,-0.48939 -1.46624,-2.6878 -3.17525,-4.39682 -5.13089,-1.95371 0,0 1.22347,0.48746 1.22347,1.22155 0.73217,1.95371 -1.95564,3.17526 -3.17718,4.39681 -0.73217,0.73409 0,2.6878 0.73407,3.17719 1.21964,0.73216 1.70903,-1.95564 3.17528,-2.4431 0.48938,0 1.22154,0 1.22154,0.48746 0.48747,2.6878 1.22156,5.1309 -1.22154,7.08461 -1.46625,0.73409 -2.68781,1.22155 -4.64152,1.22155 -1.22154,0.73409 -0.48939,1.95564 -0.48939,2.68779 1.95563,3.1772 5.13091,4.39875 6.35245,7.57402 h 1.22156 c 0,-3.17527 0.73215,-6.35246 0,-10.26181 0,-1.22155 1.22154,-2.4431 3.17526,-1.95371 1.95564,1.46625 1.22156,3.90935 3.17719,5.1309 h 1.22155 c 1.95371,-1.22155 0,-2.4431 0,-3.66465 z m -10.74927,4.88621 c -1.95564,0 -2.44311,-3.17719 0,-4.39874 h 1.22155 c 0.73216,0 0.48748,0.73408 0.73216,1.22155 0.48747,1.95563 -0.73216,3.90934 -1.95371,3.17719 z m -0.73408,-13.92646 c -0.48939,0 -1.22156,-0.48939 -0.48939,-1.22155 1.22347,-0.73216 1.22347,-3.17526 3.17718,-3.17526 0.48747,0 0.48747,0.73216 1.22156,1.22155 -1.22156,1.22155 -1.95372,3.17526 -3.90935,3.17526 z"
   style="fill:#231f20;stroke-width:1.92674"
   id="path46" /><path
   d="m 361.32451,96.032592 c -0.48937,-0.246619 -0.48937,-0.489388 -0.97686,-0.489388 -0.73407,0 -1.71092,-0.734086 -2.20032,-0.734086 -0.73216,-3.664656 2.44503,-6.839917 5.62029,-4.396814 1.22155,1.953711 1.95372,4.396814 -0.73409,6.352452 -0.48746,0 -1.22154,0 -1.70902,-0.732164 z"
   style="fill:#231f20;stroke-width:1.92674"
   id="path48" /><path
   d="m 369.87538,121.19577 c -0.2447,-0.48938 -0.48939,-2.1984 -0.48939,-2.93248 0,-0.48747 -1.22155,-0.48747 -1.22155,-0.48747 -0.48747,2.4431 0.97685,8.79555 -2.4431,6.35246 -4.15212,-2.93251 -2.19842,-10.26181 -0.97686,-15.39271 0,-0.48939 -1.71095,-0.48939 -2.19841,-0.48939 -0.73408,0.48939 -3.17719,1.71094 -2.4431,0.48939 0,-3.17526 2.93056,-5.1309 4.8862,-7.574 v -1.953712 c 0,-0.489394 -0.48938,-0.489394 -1.22155,-0.489394 -3.66465,3.177186 -6.83992,4.886206 -11.48335,7.574006 0,0 0,1.22155 -0.48746,1.22155 h -1.22157 c -0.73407,-0.73216 -0.73407,-1.22155 -0.73407,-1.95371 1.22156,-2.4431 2.4431,-4.39874 1.95564,-6.841846 -0.73408,-1.22155 -1.22157,-3.909346 -3.17719,-2.685872 -1.95371,2.685872 -1.22155,7.084618 -4.39681,9.038328 -0.73409,0 -0.73409,-0.73216 -0.73409,-0.73216 0.97878,-3.17719 0,-2.9325 1.22156,-5.375599 0,-0.732161 0.48939,-1.22155 0.24468,-2.687799 l -0.24468,-0.976855 c -0.24278,-1.221552 0.24468,-0.976854 0.24468,-1.466244 0.73217,-0.732162 0.24471,-0.976859 0.97687,-1.466248 1.95563,-1.221553 3.17719,-3.175264 5.1309,-4.396814 -0.48749,0 -0.48749,-0.732163 -0.48749,-1.466249 -1.46622,0 -1.95562,-1.221552 -2.68778,-1.221552 -2.44311,1.221552 -4.39874,4.398743 -5.1309,7.574004 -0.48939,7.084612 0,13.437066 -1.22155,20.278906 -0.48939,1.95371 -4.39874,1.95371 -6.35246,3.17526 -0.48746,0 0,2.6878 1.95372,2.6878 0.73408,-0.73408 1.22348,-1.22155 1.95564,-1.95564 0.73216,0 1.95371,0 1.95371,0.73409 0,3.66465 -3.17527,6.83992 -2.68587,10.74927 0,0 1.95371,-0.2447 1.95371,-0.97686 0.48746,-4.39875 1.46624,-8.79556 2.6878,-13.19429 0.73217,-0.73217 0.48746,-1.21963 1.22155,-1.70902 0.48747,0 0.48747,0.48939 1.22154,1.22155 0.48748,1.22155 -3.17718,2.19841 -0.48939,2.93249 0.48939,0.24277 0.97687,-1.71094 1.71095,-2.20033 0.73216,0 1.22155,0 1.22155,0.48939 0.73216,3.90935 -1.95563,6.35245 -1.22155,10.2618 0.73216,1.22155 1.22155,2.4431 1.22155,3.66465 h 1.22156 l -0.4894,-0.48938 c 0,-0.73216 1.22155,-1.22156 1.22155,-1.22156 -2.68779,-5.13089 -0.73215,-10.2618 -0.73215,-15.148 0,-1.95372 2.44309,-3.17526 3.90742,-3.90935 1.71093,0 3.66656,-1.95371 5.62029,-2.44118 0.73215,0 0,0.97686 0,1.70902 -1.22156,3.17526 -1.70903,6.35245 -3.17527,9.52771 -1.22155,3.90936 -2.20033,7.32931 -1.71095,11.23866 0,0 1.46625,0 1.46625,-0.73216 -0.48939,-4.39875 1.95371,-8.06339 2.6878,-11.97082 0.48747,-1.22347 1.46432,-3.66465 2.6878,-4.15404 0.73215,0 1.21963,0 1.21963,0.48939 0,4.39681 -0.48748,7.57208 0,12.21552 0.73408,1.70901 2.6878,2.44309 4.39872,2.93057 0.73217,0 0.48941,0.48938 1.46626,0.24468 1.22156,0.2447 1.22156,-0.24468 1.70902,-0.24468 2.68778,-1.22156 1.95564,-4.15213 0.48939,-5.86308 z m -23.20947,-12.4602 c -0.73408,1.22155 0,4.39874 -2.4431,3.17719 -0.97879,-0.97878 -1.22155,-3.42189 0.48747,-5.1309 0.73407,0 2.20031,1.46432 1.95563,1.95371 z m 2.19841,-4.39681 c -0.73216,1.70901 1.22155,2.4431 -0.4894,2.93056 -1.95371,0.73409 -1.22154,-0.97685 -2.44309,-1.70901 1.95563,-1.95564 1.22155,-4.88621 3.17719,-6.352452 0.73215,0 1.95371,1.466242 0.73215,2.687792 -0.73215,0.48747 -0.97685,1.95371 -0.97685,2.44311 z"
   style="fill:#231f20;stroke-width:1.92674"
   id="path50" /><path
   d="m 384.0446,107.51402 c -0.48746,0 -1.21963,0 -1.21963,-0.73216 -1.22347,-4.88621 1.95372,-8.063396 5.61838,-10.749268 0,2.685872 -0.4894,5.128978 -2.4431,6.350528 0.48938,0.73409 1.22154,1.22155 1.22154,1.22155 6.35246,-4.886206 11.48335,-11.238655 19.05541,-11.238655 4.39875,-0.732159 11.97276,5.130899 8.30811,8.795555 -1.46623,1.22155 -5.13089,0.73408 -7.81867,0.73408 0.73214,-1.955634 3.17521,-2.687792 4.64149,-3.909342 v -1.221552 c -2.68589,-2.443103 -5.86307,-3.17719 -9.03834,-1.955638 -3.66465,1.955638 -7.57401,5.130898 -11.23865,7.086532 -2.68779,1.22156 -2.68779,4.88621 -5.13089,6.35053 -0.7341,0 -1.22156,-0.73216 -1.95565,-0.73216 z"
   style="fill:#231f20;stroke-width:1.92674"
   id="path52" /><path
   d="m 399.19263,90.412304 c -2.19843,-0.732161 -3.66468,-4.398741 -1.22157,-5.130904 1.22157,-0.489389 1.95564,1.221552 3.17527,2.687801 0.73408,1.22155 0,3.175261 -1.9537,2.443103 z"
   style="fill:#231f20;stroke-width:1.92674"
   id="path54" /><path
   d="m 399.9267,104.33876 c 0,1.95371 -1.22156,3.90742 -2.44504,3.17526 -2.68588,0 -3.90741,2.4431 -6.35052,1.95564 0.48746,0 0.48746,-0.73409 0.48746,-1.22348 h 1.22156 c 1.46625,-1.95371 2.68779,-3.17526 3.90936,-5.12897 0,-0.73409 0,-1.22156 -0.73217,-1.22156 0.73217,0 0.73217,-0.73408 0.73217,-1.22155 1.95562,0.48747 3.17718,1.22155 3.17718,3.66466 z"
   style="fill:#231f20;stroke-width:1.92674"
   id="path56" /><path
   d="m 403.83412,105.07092 c -1.22157,-0.97686 -1.95371,-3.17527 -0.73215,-3.17527 1.22152,-0.73408 1.95562,1.22156 3.17523,2.44311 -0.73214,0 -0.73214,0.73216 -0.73214,1.22155 -0.48747,0 -1.22157,0 -1.71094,-0.48939 z"
   style="fill:#231f20;stroke-width:1.92674"
   id="path58" /><path
   d="m 402.36979,113.86647 c -0.48938,1.95371 0,3.90935 -1.22346,5.61837 -1.21963,1.46625 -3.66467,1.95563 -3.17527,3.17719 0,1.95371 2.68779,-0.48939 4.39873,-0.48939 0.73218,0 1.46433,0.48939 1.46433,1.22154 0.48937,1.95564 0,3.66467 -1.95371,4.39875 -3.17527,0 -7.08463,0.73216 -10.26181,0 0.73409,-1.22156 -1.95371,-3.17719 0,-3.66465 1.95565,0 3.90935,-1.46625 3.90935,-3.17719 0.4894,0 1.22157,0 1.22157,-0.73217 0.73214,-1.95563 2.44311,-3.90935 0.73214,-5.1309 -0.73214,0 -1.95371,-0.48939 -2.68588,-0.48939 1.95374,-1.46432 3.90936,-1.95371 5.86307,-3.17526 1.22156,0 2.44312,0.48939 1.71094,2.4431 z"
   style="fill:#231f20;stroke-width:1.92674"
   id="path60" /><path
   d="m 431.68703,109.46966 c -0.73218,0.48746 -1.46626,1.21962 -1.95565,1.95371 0,-1.95371 1.22347,-2.6878 2.4431,-3.90935 1.95565,-3.90935 2.68778,-8.795556 5.865,-11.970816 0.48744,-0.734086 2.44308,-0.734086 3.66466,0 1.95371,1.221552 1.95371,3.17526 1.22155,5.130896 -0.48941,0.48747 -1.22155,1.22155 -2.44313,1.22155 -1.95564,1.22156 -2.44308,3.66466 -4.39872,5.61837 -1.22158,0.73216 -3.17529,0.73216 -4.39681,1.95564 z"
   style="fill:#231f20;stroke-width:1.92674"
   id="path62" /><path
   d="m 439.9932,123.63888 c 2.44308,0 4.39872,-2.68779 6.10772,-4.64151 v -1.22155 c 0.7341,0 1.46629,-1.46625 2.6878,-0.73409 1.71095,1.22156 1.71095,3.17719 3.17529,4.39874 0.48937,1.95371 0,4.39682 -2.68586,4.39682 -1.71094,-0.48747 -0.48943,-3.17526 -2.44313,-3.66465 -0.7341,0 -0.97876,0.48939 -1.46624,0.48939 -3.17717,1.95371 -5.13088,6.35245 -9.04024,5.1309 0,0 -0.97685,-2.44311 -0.2447,-3.17719 0.48937,-1.22156 1.22155,-1.95371 1.22155,-3.17527 1.95561,-2.4431 3.17717,-5.1309 5.13089,-6.84184 1.95564,-2.68587 1.95564,-7.81677 5.6203,-7.81677 0.73214,0 1.22157,0.97686 1.22157,1.70901 -1.46629,1.22155 -3.17723,0 -3.90937,1.95564 -0.73407,1.22155 1.95371,0.73216 1.22157,1.95371 -2.44313,3.90935 -5.6203,6.35245 -7.57402,10.26181 -0.73218,1.22154 0.24467,0.97685 0.97687,0.97685 z"
   style="fill:#231f20;stroke-width:1.92674"
   id="path64" /><path
   d="m 451.23186,101.16157 c -0.73219,0 -1.22157,0 -1.22157,-0.48747 0,-1.955636 0,-3.909344 1.22157,-5.864982 0.73215,1.223474 2.44307,1.223474 3.17522,2.687796 0.73409,1.710944 -0.73215,3.664656 -1.9537,4.398736 0,0 -0.48937,-0.73408 -1.22152,-0.73408 z"
   style="fill:#231f20;stroke-width:1.92674"
   id="path66" /></svg>
